<svg width="17" height="16" viewBox="0 0 17 16" fill="none" xmlns="http://www.w3.org/2000/svg">
<path d="M8.49894 0.166534C3.80588 0.166534 0 3.76253 0 8.19853C0 11.7465 2.43525 14.7565 5.814 15.8195C6.239 15.8935 6.39413 15.6455 6.39413 15.4325C6.39413 15.2415 6.38669 14.7365 6.38244 14.0665C4.01838 14.5515 3.519 12.9895 3.519 12.9895C3.13331 12.0615 2.5755 11.8145 2.5755 11.8145C1.80306 11.3165 2.63287 11.3265 2.63287 11.3265C3.48606 11.3835 3.93444 12.1545 3.93444 12.1545C4.69306 13.3815 5.9245 13.0275 6.409 12.8215C6.4855 12.3025 6.70544 11.9485 6.94875 11.7475C5.06175 11.5445 3.077 10.8555 3.077 7.77853C3.077 6.90153 3.4085 6.18453 3.9525 5.62253C3.86431 5.41953 3.57319 4.60253 4.03538 3.49753C4.03538 3.49753 4.74938 3.28153 6.37288 4.32053C7.05075 4.14253 7.7775 4.05353 8.50106 4.05053C9.2225 4.05453 9.95031 4.14253 10.6292 4.32153C12.2517 3.28253 12.9646 3.49853 12.9646 3.49853C13.4279 4.60453 13.1367 5.42053 13.0496 5.62353C13.5947 6.18553 13.923 6.90253 13.923 7.77953C13.923 10.8645 11.9361 11.5435 10.0427 11.7425C10.3477 11.9905 10.6197 12.4805 10.6197 13.2295C10.6197 14.3035 10.6091 15.1695 10.6091 15.4325C10.6091 15.6475 10.7621 15.8975 11.1934 15.8185C14.5669 14.7545 17 11.7455 17 8.19853C17 3.76253 13.1941 0.166534 8.49894 0.166534Z" fill="#C4C4CC"/>
</svg>
